<?xml version="1.0" encoding="UTF-8" standalone="no"?>
<!DOCTYPE svg PUBLIC "-//W3C//DTD SVG 1.1//EN"
 "http://www.w3.org/Graphics/SVG/1.1/DTD/svg11.dtd">
<!-- Generated by graphviz version 2.26.3 (20100126.1600)
 -->
<!-- Title: controllers_diagram Pages: 1 -->
<svg width="560pt" height="673pt"
 viewBox="0.00 0.00 560.00 673.00" xmlns="http://www.w3.org/2000/svg" xmlns:xlink="http://www.w3.org/1999/xlink">
<g id="graph1" class="graph" transform="scale(1 1) rotate(0) translate(4 669)">
<title>controllers_diagram</title>
<polygon fill="white" stroke="white" points="-4,5 -4,-669 557,-669 557,5 -4,5"/>
<!-- _diagram_info -->
<g id="node1" class="node"><title>_diagram_info</title>
<text text-anchor="start" x="35" y="-520.3" font-family="Times Roman,serif" font-size="13.00">Controllers diagram</text>
<text text-anchor="start" x="35" y="-503.3" font-family="Times Roman,serif" font-size="13.00">Date: Dec 03 2012 &#45; 10:17</text>
<text text-anchor="start" x="35" y="-486.3" font-family="Times Roman,serif" font-size="13.00">Migration version: 20121118203154</text>
<text text-anchor="start" x="35" y="-469.3" font-family="Times Roman,serif" font-size="13.00">Generated by RailRoady 1.0.8</text>
<text text-anchor="start" x="35" y="-452.3" font-family="Times Roman,serif" font-size="13.00">http://railroady.prestonlee.com</text>
</g>
<!-- ApplicationController -->
<g id="node2" class="node"><title>ApplicationController</title>
<polyline fill="none" stroke="black" points="325,-417.5 539,-417.5 "/>
<path fill="none" stroke="black" d="M539,-417.5C545,-417.5 551,-423.5 551,-429.5"/>
<polyline fill="none" stroke="black" points="551,-429.5 551,-651.5 "/>
<path fill="none" stroke="black" d="M551,-651.5C551,-657.5 545,-663.5 539,-663.5"/>
<polyline fill="none" stroke="black" points="539,-663.5 325,-663.5 "/>
<path fill="none" stroke="black" d="M325,-663.5C319,-663.5 313,-657.5 313,-651.5"/>
<polyline fill="none" stroke="black" points="313,-651.5 313,-429.5 "/>
<path fill="none" stroke="black" d="M313,-429.5C313,-423.5 319,-417.5 325,-417.5"/>
<text text-anchor="middle" x="432" y="-646.9" font-family="Times Roman,serif" font-size="14.00">ApplicationController</text>
<polyline fill="none" stroke="black" points="313,-637.5 551,-637.5 "/>
<text text-anchor="start" x="321" y="-620.9" font-family="Times Roman,serif" font-size="14.00">_one_time_conditions_valid_18?</text>
<text text-anchor="start" x="321" y="-602.9" font-family="Times Roman,serif" font-size="14.00">get_current_user</text>
<text text-anchor="start" x="321" y="-584.9" font-family="Times Roman,serif" font-size="14.00">is_admin</text>
<text text-anchor="start" x="321" y="-566.9" font-family="Times Roman,serif" font-size="14.00">is_admin_or_powner</text>
<text text-anchor="start" x="321" y="-548.9" font-family="Times Roman,serif" font-size="14.00">is_admin_or_powner_or_rowner</text>
<text text-anchor="start" x="321" y="-530.9" font-family="Times Roman,serif" font-size="14.00">is_admin_or_user</text>
<text text-anchor="start" x="321" y="-512.9" font-family="Times Roman,serif" font-size="14.00">login_required</text>
<text text-anchor="start" x="321" y="-494.9" font-family="Times Roman,serif" font-size="14.00">project_id_matches_user</text>
<text text-anchor="start" x="321" y="-476.9" font-family="Times Roman,serif" font-size="14.00">user_for_paper_trail</text>
<polyline fill="none" stroke="black" points="313,-467.5 551,-467.5 "/>
<polyline fill="none" stroke="black" points="313,-443.5 551,-443.5 "/>
<text text-anchor="start" x="321" y="-426.9" font-family="Times Roman,serif" font-size="14.00">_layout</text>
</g>
<!-- ProjectController -->
<g id="node3" class="node"><title>ProjectController</title>
<polyline fill="none" stroke="black" points="13,-53.5 227,-53.5 "/>
<path fill="none" stroke="black" d="M227,-53.5C233,-53.5 239,-59.5 239,-65.5"/>
<polyline fill="none" stroke="black" points="239,-65.5 239,-377.5 "/>
<path fill="none" stroke="black" d="M239,-377.5C239,-383.5 233,-389.5 227,-389.5"/>
<polyline fill="none" stroke="black" points="227,-389.5 13,-389.5 "/>
<path fill="none" stroke="black" d="M13,-389.5C7,-389.5 1,-383.5 1,-377.5"/>
<polyline fill="none" stroke="black" points="1,-377.5 1,-65.5 "/>
<path fill="none" stroke="black" d="M1,-65.5C1,-59.5 7,-53.5 13,-53.5"/>
<text text-anchor="middle" x="120" y="-372.9" font-family="Times Roman,serif" font-size="14.00">ProjectController</text>
<polyline fill="none" stroke="black" points="1,-363.5 239,-363.5 "/>
<text text-anchor="start" x="9" y="-346.9" font-family="Times Roman,serif" font-size="14.00">_callback_before_97</text>
<text text-anchor="start" x="9" y="-328.9" font-family="Times Roman,serif" font-size="14.00">_one_time_conditions_valid_84?</text>
<text text-anchor="start" x="9" y="-310.9" font-family="Times Roman,serif" font-size="14.00">_one_time_conditions_valid_86?</text>
<text text-anchor="start" x="9" y="-292.9" font-family="Times Roman,serif" font-size="14.00">_one_time_conditions_valid_90?</text>
<text text-anchor="start" x="9" y="-274.9" font-family="Times Roman,serif" font-size="14.00">_one_time_conditions_valid_94?</text>
<text text-anchor="start" x="9" y="-256.9" font-family="Times Roman,serif" font-size="14.00">_one_time_conditions_valid_98?</text>
<text text-anchor="start" x="9" y="-238.9" font-family="Times Roman,serif" font-size="14.00">add_members</text>
<text text-anchor="start" x="9" y="-220.9" font-family="Times Roman,serif" font-size="14.00">destroy</text>
<text text-anchor="start" x="9" y="-202.9" font-family="Times Roman,serif" font-size="14.00">edit</text>
<text text-anchor="start" x="9" y="-184.9" font-family="Times Roman,serif" font-size="14.00">index</text>
<text text-anchor="start" x="9" y="-166.9" font-family="Times Roman,serif" font-size="14.00">new</text>
<text text-anchor="start" x="9" y="-148.9" font-family="Times Roman,serif" font-size="14.00">reactivate</text>
<text text-anchor="start" x="9" y="-130.9" font-family="Times Roman,serif" font-size="14.00">remove_member</text>
<text text-anchor="start" x="9" y="-112.9" font-family="Times Roman,serif" font-size="14.00">show</text>
<polyline fill="none" stroke="black" points="1,-103.5 239,-103.5 "/>
<polyline fill="none" stroke="black" points="1,-79.5 239,-79.5 "/>
<text text-anchor="start" x="9" y="-62.9" font-family="Times Roman,serif" font-size="14.00">_layout</text>
</g>
<!-- RiskController -->
<g id="node4" class="node"><title>RiskController</title>
<polyline fill="none" stroke="black" points="299,-79.5 522,-79.5 "/>
<path fill="none" stroke="black" d="M522,-79.5C528,-79.5 534,-85.5 534,-91.5"/>
<polyline fill="none" stroke="black" points="534,-91.5 534,-367.5 "/>
<path fill="none" stroke="black" d="M534,-367.5C534,-373.5 528,-379.5 522,-379.5"/>
<polyline fill="none" stroke="black" points="522,-379.5 299,-379.5 "/>
<path fill="none" stroke="black" d="M299,-379.5C293,-379.5 287,-373.5 287,-367.5"/>
<polyline fill="none" stroke="black" points="287,-367.5 287,-91.5 "/>
<path fill="none" stroke="black" d="M287,-91.5C287,-85.5 293,-79.5 299,-79.5"/>
<text text-anchor="middle" x="410.5" y="-362.9" font-family="Times Roman,serif" font-size="14.00">RiskController</text>
<polyline fill="none" stroke="black" points="287,-353.5 534,-353.5 "/>
<text text-anchor="start" x="295" y="-336.9" font-family="Times Roman,serif" font-size="14.00">_callback_before_148</text>
<text text-anchor="start" x="295" y="-318.9" font-family="Times Roman,serif" font-size="14.00">_one_time_conditions_valid_141?</text>
<text text-anchor="start" x="295" y="-300.9" font-family="Times Roman,serif" font-size="14.00">_one_time_conditions_valid_143?</text>
<text text-anchor="start" x="295" y="-282.9" font-family="Times Roman,serif" font-size="14.00">_one_time_conditions_valid_145?</text>
<text text-anchor="start" x="295" y="-264.9" font-family="Times Roman,serif" font-size="14.00">_one_time_conditions_valid_149?</text>
<text text-anchor="start" x="295" y="-246.9" font-family="Times Roman,serif" font-size="14.00">destroy</text>
<text text-anchor="start" x="295" y="-228.9" font-family="Times Roman,serif" font-size="14.00">edit</text>
<text text-anchor="start" x="295" y="-210.9" font-family="Times Roman,serif" font-size="14.00">index</text>
<text text-anchor="start" x="295" y="-192.9" font-family="Times Roman,serif" font-size="14.00">int_to_value</text>
<text text-anchor="start" x="295" y="-174.9" font-family="Times Roman,serif" font-size="14.00">new</text>
<text text-anchor="start" x="295" y="-156.9" font-family="Times Roman,serif" font-size="14.00">reactivate</text>
<text text-anchor="start" x="295" y="-138.9" font-family="Times Roman,serif" font-size="14.00">show</text>
<polyline fill="none" stroke="black" points="287,-129.5 534,-129.5 "/>
<polyline fill="none" stroke="black" points="287,-105.5 534,-105.5 "/>
<text text-anchor="start" x="295" y="-88.9" font-family="Times Roman,serif" font-size="14.00">_layout</text>
</g>
<!-- UserController -->
<g id="node5" class="node"><title>UserController</title>
<polyline fill="none" stroke="black" points="299,-1.5 392,-1.5 "/>
<path fill="none" stroke="black" d="M392,-1.5C398,-1.5 404,-7.5 404,-13.5"/>
<polyline fill="none" stroke="black" points="404,-13.5 404,-25.5 "/>
<path fill="none" stroke="black" d="M404,-25.5C404,-31.5 398,-37.5 392,-37.5"/>
<polyline fill="none" stroke="black" points="392,-37.5 299,-37.5 "/>
<path fill="none" stroke="black" d="M299,-37.5C293,-37.5 287,-31.5 287,-25.5"/>
<polyline fill="none" stroke="black" points="287,-25.5 287,-13.5 "/>
<path fill="none" stroke="black" d="M287,-13.5C287,-7.5 293,-1.5 299,-1.5"/>
<text text-anchor="middle" x="345.5" y="-15.9" font-family="Times Roman,serif" font-size="14.00">UserController</text>
</g>
</g>
</svg>
