<?xml version="1.0" encoding="UTF-8" standalone="no"?>
<!DOCTYPE svg PUBLIC "-//W3C//DTD SVG 1.1//EN"
 "http://www.w3.org/Graphics/SVG/1.1/DTD/svg11.dtd">
<!-- Generated by graphviz version 2.26.3 (20100126.1600)
 -->
<!-- Title: models_diagram Pages: 1 -->
<svg width="443pt" height="362pt"
 viewBox="0.00 0.00 443.00 362.00" xmlns="http://www.w3.org/2000/svg" xmlns:xlink="http://www.w3.org/1999/xlink">
<g id="graph1" class="graph" transform="scale(1 1) rotate(0) translate(4 358)">
<title>models_diagram</title>
<polygon fill="white" stroke="white" points="-4,5 -4,-358 440,-358 440,5 -4,5"/>
<!-- _diagram_info -->
<g id="node1" class="node"><title>_diagram_info</title>
<text text-anchor="start" x="8" y="-337.8" font-family="Times Roman,serif" font-size="13.00">Models diagram</text>
<text text-anchor="start" x="8" y="-320.8" font-family="Times Roman,serif" font-size="13.00">Date: Dec 03 2012 &#45; 10:16</text>
<text text-anchor="start" x="8" y="-303.8" font-family="Times Roman,serif" font-size="13.00">Migration version: 20121118203154</text>
<text text-anchor="start" x="8" y="-286.8" font-family="Times Roman,serif" font-size="13.00">Generated by RailRoady 1.0.8</text>
<text text-anchor="start" x="8" y="-269.8" font-family="Times Roman,serif" font-size="13.00">http://railroady.prestonlee.com</text>
</g>
<!-- Project -->
<g id="node2" class="node"><title>Project</title>
<ellipse fill="none" stroke="black" cx="314" cy="-307" rx="45.9619" ry="18.3848"/>
<text text-anchor="middle" x="314" y="-303.4" font-family="Times Roman,serif" font-size="14.00">Project</text>
</g>
<!-- ProjectMembership -->
<g id="node3" class="node"><title>ProjectMembership</title>
<ellipse fill="none" stroke="black" cx="231" cy="-95" rx="104.151" ry="18.3848"/>
<text text-anchor="middle" x="231" y="-91.4" font-family="Times Roman,serif" font-size="14.00">ProjectMembership</text>
</g>
<!-- Project&#45;&gt;ProjectMembership -->
<g id="edge2" class="edge"><title>Project&#45;&gt;ProjectMembership</title>
<path fill="none" stroke="#835f17" d="M292.66,-283.481C276.605,-264.196 255.759,-235.378 246,-206 237.004,-178.917 233.392,-146.406 231.948,-123.592"/>
<ellipse fill="none" stroke="#835f17" cx="295.307" cy="-286.595" rx="4.00002" ry="4.00002"/>
<polygon fill="#835f17" stroke="#835f17" points="231.945,-123.528 235.906,-113.303 231.679,-118.535 231.413,-113.542 231.413,-113.542 231.413,-113.542 231.679,-118.535 226.919,-113.782 231.945,-123.528 231.945,-123.528"/>
</g>
<!-- Risk -->
<g id="node4" class="node"><title>Risk</title>
<ellipse fill="none" stroke="black" cx="387" cy="-95" rx="31.8198" ry="18.3848"/>
<text text-anchor="middle" x="387" y="-91.4" font-family="Times Roman,serif" font-size="14.00">Risk</text>
</g>
<!-- Project&#45;&gt;Risk -->
<g id="edge8" class="edge"><title>Project&#45;&gt;Risk</title>
<path fill="none" stroke="#3e12ea" d="M332.755,-282.677C340.985,-270.945 350.097,-256.331 356,-242 372.103,-202.909 380.242,-154.387 384.047,-124.049"/>
<ellipse fill="none" stroke="#3e12ea" cx="330.379" cy="-285.981" rx="4.00002" ry="4.00002"/>
<polygon fill="#3e12ea" stroke="#3e12ea" points="384.09,-123.677 389.728,-114.271 384.675,-118.711 385.259,-113.745 385.259,-113.745 385.259,-113.745 384.675,-118.711 380.79,-113.219 384.09,-123.677 384.09,-123.677"/>
</g>
<!-- User -->
<g id="node5" class="node"><title>User</title>
<ellipse fill="none" stroke="black" cx="289" cy="-187" rx="33.9411" ry="18.3848"/>
<text text-anchor="middle" x="289" y="-183.4" font-family="Times Roman,serif" font-size="14.00">User</text>
</g>
<!-- Project&#45;&gt;User -->
<g id="edge4" class="edge"><title>Project&#45;&gt;User</title>
<path fill="none" stroke="#c8335f" d="M331.944,-280.427C340.876,-263.68 348.03,-241.915 339,-224 335.309,-216.677 329.408,-210.443 322.934,-205.296"/>
<polygon fill="#c8335f" stroke="#c8335f" points="331.9,-280.503 322.996,-286.903 329.396,-284.83 326.891,-289.158 326.891,-289.158 326.891,-289.158 329.396,-284.83 330.786,-291.412 331.9,-280.503 331.9,-280.503"/>
<polygon fill="#c8335f" stroke="#c8335f" points="322.709,-205.137 317.149,-195.686 318.629,-202.248 314.548,-199.358 314.548,-199.358 314.548,-199.358 318.629,-202.248 311.948,-203.03 322.709,-205.137 322.709,-205.137"/>
</g>
<!-- Project&#45;&gt;User -->
<g id="edge6" class="edge"><title>Project&#45;&gt;User</title>
<path fill="none" stroke="#ce7bf5" d="M291.99,-281.34C283.701,-270.047 275.255,-256.145 271,-242 268.237,-232.815 270.038,-222.832 273.383,-213.923"/>
<polygon fill="#ce7bf5" stroke="#ce7bf5" points="292.12,-281.509 294.662,-292.176 295.173,-285.469 298.226,-289.429 298.226,-289.429 298.226,-289.429 295.173,-285.469 301.789,-286.681 292.12,-281.509 292.12,-281.509"/>
<polygon fill="#ce7bf5" stroke="#ce7bf5" points="273.395,-213.895 281.585,-206.602 275.436,-209.331 277.476,-204.766 277.476,-204.766 277.476,-204.766 275.436,-209.331 273.368,-202.929 273.395,-213.895 273.395,-213.895"/>
<text text-anchor="middle" x="303" y="-229.4" font-family="Times Roman,serif" font-size="14.00">members</text>
</g>
<!-- Version -->
<g id="node11" class="node"><title>Version</title>
<ellipse fill="none" stroke="black" cx="387" cy="-19" rx="48.0833" ry="18.3848"/>
<text text-anchor="middle" x="387" y="-15.4" font-family="Times Roman,serif" font-size="14.00">Version</text>
</g>
<!-- Risk&#45;&gt;Version -->
<g id="edge10" class="edge"><title>Risk&#45;&gt;Version</title>
<path fill="none" stroke="#a157bb" d="M387,-68.0731C387,-61.4485 387,-54.332 387,-47.6302"/>
<ellipse fill="none" stroke="#a157bb" cx="387" cy="-72.2135" rx="4" ry="4"/>
<polygon fill="#a157bb" stroke="#a157bb" points="387,-47.5704 391.5,-37.5704 387,-42.5704 387,-37.5704 387,-37.5704 387,-37.5704 387,-42.5704 382.5,-37.5705 387,-47.5704 387,-47.5704"/>
</g>
<!-- User&#45;&gt;ProjectMembership -->
<g id="edge12" class="edge"><title>User&#45;&gt;ProjectMembership</title>
<path fill="none" stroke="#33422e" d="M273.315,-162.121C265.565,-149.827 256.193,-134.961 248.241,-122.349"/>
<ellipse fill="none" stroke="#33422e" cx="275.684" cy="-165.878" rx="4.00002" ry="4.00002"/>
<polygon fill="#33422e" stroke="#33422e" points="248.079,-122.091 246.553,-111.232 245.412,-117.861 242.746,-113.631 242.746,-113.631 242.746,-113.631 245.412,-117.861 238.939,-116.031 248.079,-122.091 248.079,-122.091"/>
</g>
<!-- User&#45;&gt;Risk -->
<g id="edge14" class="edge"><title>User&#45;&gt;Risk</title>
<path fill="none" stroke="#3a5bf0" d="M282.851,-160.553C282.064,-150.765 283.133,-140.093 289,-132 304.096,-111.176 319.985,-123.209 344,-114 346.715,-112.959 349.507,-111.84 352.302,-110.684"/>
<ellipse fill="none" stroke="#3a5bf0" cx="283.367" cy="-164.524" rx="4.00001" ry="4.00001"/>
<polygon fill="#3a5bf0" stroke="#3a5bf0" points="352.509,-110.596 363.473,-110.817 357.109,-108.636 361.709,-106.677 361.709,-106.677 361.709,-106.677 357.109,-108.636 359.945,-102.537 352.509,-110.596 352.509,-110.596"/>
<text text-anchor="middle" x="332" y="-137.4" font-family="Times Roman,serif" font-size="14.00">owned_risks</text>
</g>
</g>
</svg>
