<?xml version="1.0" encoding="UTF-8" standalone="no"?>
<!DOCTYPE svg PUBLIC "-//W3C//DTD SVG 1.1//EN"
 "http://www.w3.org/Graphics/SVG/1.1/DTD/svg11.dtd">
<!-- Generated by graphviz version 2.26.3 (20100126.1600)
 -->
<!-- Title: models_diagram Pages: 1 -->
<svg width="585pt" height="1254pt"
 viewBox="0.00 0.00 585.00 1254.00" xmlns="http://www.w3.org/2000/svg" xmlns:xlink="http://www.w3.org/1999/xlink">
<g id="graph1" class="graph" transform="scale(1 1) rotate(0) translate(4 1250)">
<title>models_diagram</title>
<polygon fill="white" stroke="white" points="-4,5 -4,-1250 582,-1250 582,5 -4,5"/>
<!-- _diagram_info -->
<g id="node1" class="node"><title>_diagram_info</title>
<text text-anchor="start" x="8" y="-1114.8" font-family="Times Roman,serif" font-size="13.00">Models diagram</text>
<text text-anchor="start" x="8" y="-1097.8" font-family="Times Roman,serif" font-size="13.00">Date: Dec 03 2012 &#45; 10:16</text>
<text text-anchor="start" x="8" y="-1080.8" font-family="Times Roman,serif" font-size="13.00">Migration version: 20121118203154</text>
<text text-anchor="start" x="8" y="-1063.8" font-family="Times Roman,serif" font-size="13.00">Generated by RailRoady 1.0.8</text>
<text text-anchor="start" x="8" y="-1046.8" font-family="Times Roman,serif" font-size="13.00">http://railroady.prestonlee.com</text>
</g>
<!-- Project -->
<g id="node2" class="node"><title>Project</title>
<polyline fill="none" stroke="black" points="279.5,-923 482.5,-923 "/>
<path fill="none" stroke="black" d="M482.5,-923C488.5,-923 494.5,-929 494.5,-935"/>
<polyline fill="none" stroke="black" points="494.5,-935 494.5,-1233 "/>
<path fill="none" stroke="black" d="M494.5,-1233C494.5,-1239 488.5,-1245 482.5,-1245"/>
<polyline fill="none" stroke="black" points="482.5,-1245 279.5,-1245 "/>
<path fill="none" stroke="black" d="M279.5,-1245C273.5,-1245 267.5,-1239 267.5,-1233"/>
<polyline fill="none" stroke="black" points="267.5,-1233 267.5,-935 "/>
<path fill="none" stroke="black" d="M267.5,-935C267.5,-929 273.5,-923 279.5,-923"/>
<text text-anchor="middle" x="381" y="-1228.4" font-family="Times Roman,serif" font-size="14.00">Project</text>
<polyline fill="none" stroke="black" points="267.5,-1219 494.5,-1219 "/>
<text text-anchor="start" x="275.5" y="-1202.4" font-family="Times Roman,serif" font-size="14.00">id :integer</text>
<text text-anchor="start" x="275.5" y="-1184.4" font-family="Times Roman,serif" font-size="14.00">name :string</text>
<text text-anchor="start" x="275.5" y="-1166.4" font-family="Times Roman,serif" font-size="14.00">description :text</text>
<text text-anchor="start" x="275.5" y="-1148.4" font-family="Times Roman,serif" font-size="14.00">created_at :datetime</text>
<text text-anchor="start" x="275.5" y="-1130.4" font-family="Times Roman,serif" font-size="14.00">updated_at :datetime</text>
<text text-anchor="start" x="275.5" y="-1112.4" font-family="Times Roman,serif" font-size="14.00">status :string</text>
<text text-anchor="start" x="275.5" y="-1094.4" font-family="Times Roman,serif" font-size="14.00">prefix :string</text>
<text text-anchor="start" x="275.5" y="-1076.4" font-family="Times Roman,serif" font-size="14.00">probability_impact_11 :integer</text>
<text text-anchor="start" x="275.5" y="-1058.4" font-family="Times Roman,serif" font-size="14.00">probability_impact_12 :integer</text>
<text text-anchor="start" x="275.5" y="-1040.4" font-family="Times Roman,serif" font-size="14.00">probability_impact_13 :integer</text>
<text text-anchor="start" x="275.5" y="-1022.4" font-family="Times Roman,serif" font-size="14.00">probability_impact_21 :integer</text>
<text text-anchor="start" x="275.5" y="-1004.4" font-family="Times Roman,serif" font-size="14.00">probability_impact_22 :integer</text>
<text text-anchor="start" x="275.5" y="-986.4" font-family="Times Roman,serif" font-size="14.00">probability_impact_23 :integer</text>
<text text-anchor="start" x="275.5" y="-968.4" font-family="Times Roman,serif" font-size="14.00">probability_impact_31 :integer</text>
<text text-anchor="start" x="275.5" y="-950.4" font-family="Times Roman,serif" font-size="14.00">probability_impact_32 :integer</text>
<text text-anchor="start" x="275.5" y="-932.4" font-family="Times Roman,serif" font-size="14.00">probability_impact_33 :integer</text>
</g>
<!-- ProjectMembership -->
<g id="node3" class="node"><title>ProjectMembership</title>
<polyline fill="none" stroke="black" points="213.5,-257 354.5,-257 "/>
<path fill="none" stroke="black" d="M354.5,-257C360.5,-257 366.5,-263 366.5,-269"/>
<polyline fill="none" stroke="black" points="366.5,-269 366.5,-405 "/>
<path fill="none" stroke="black" d="M366.5,-405C366.5,-411 360.5,-417 354.5,-417"/>
<polyline fill="none" stroke="black" points="354.5,-417 213.5,-417 "/>
<path fill="none" stroke="black" d="M213.5,-417C207.5,-417 201.5,-411 201.5,-405"/>
<polyline fill="none" stroke="black" points="201.5,-405 201.5,-269 "/>
<path fill="none" stroke="black" d="M201.5,-269C201.5,-263 207.5,-257 213.5,-257"/>
<text text-anchor="middle" x="284" y="-400.4" font-family="Times Roman,serif" font-size="14.00">ProjectMembership</text>
<polyline fill="none" stroke="black" points="201.5,-391 366.5,-391 "/>
<text text-anchor="start" x="209.5" y="-374.4" font-family="Times Roman,serif" font-size="14.00">id :integer</text>
<text text-anchor="start" x="209.5" y="-356.4" font-family="Times Roman,serif" font-size="14.00">user_id :integer</text>
<text text-anchor="start" x="209.5" y="-338.4" font-family="Times Roman,serif" font-size="14.00">project_id :integer</text>
<text text-anchor="start" x="209.5" y="-320.4" font-family="Times Roman,serif" font-size="14.00">owner :boolean</text>
<text text-anchor="start" x="209.5" y="-302.4" font-family="Times Roman,serif" font-size="14.00">created_at :datetime</text>
<text text-anchor="start" x="209.5" y="-284.4" font-family="Times Roman,serif" font-size="14.00">updated_at :datetime</text>
<text text-anchor="start" x="209.5" y="-266.4" font-family="Times Roman,serif" font-size="14.00">permission :string</text>
</g>
<!-- Project&#45;&gt;ProjectMembership -->
<g id="edge2" class="edge"><title>Project&#45;&gt;ProjectMembership</title>
<path fill="none" stroke="#248267" d="M295.54,-915.256C290.086,-899.567 285.42,-883.672 282,-868 248.865,-716.179 260.232,-534.074 271.863,-427.388"/>
<ellipse fill="none" stroke="#248267" cx="296.935" cy="-919.171" rx="4.00001" ry="4.00001"/>
<polygon fill="#248267" stroke="#248267" points="271.879,-427.241 277.46,-417.801 272.434,-422.272 272.988,-417.302 272.988,-417.302 272.988,-417.302 272.434,-422.272 268.516,-416.803 271.879,-427.241 271.879,-427.241"/>
</g>
<!-- Risk -->
<g id="node4" class="node"><title>Risk</title>
<polyline fill="none" stroke="black" points="407,-77 565,-77 "/>
<path fill="none" stroke="black" d="M565,-77C571,-77 577,-83 577,-89"/>
<polyline fill="none" stroke="black" points="577,-89 577,-585 "/>
<path fill="none" stroke="black" d="M577,-585C577,-591 571,-597 565,-597"/>
<polyline fill="none" stroke="black" points="565,-597 407,-597 "/>
<path fill="none" stroke="black" d="M407,-597C401,-597 395,-591 395,-585"/>
<polyline fill="none" stroke="black" points="395,-585 395,-89 "/>
<path fill="none" stroke="black" d="M395,-89C395,-83 401,-77 407,-77"/>
<text text-anchor="middle" x="486" y="-580.4" font-family="Times Roman,serif" font-size="14.00">Risk</text>
<polyline fill="none" stroke="black" points="395,-571 577,-571 "/>
<text text-anchor="start" x="403" y="-554.4" font-family="Times Roman,serif" font-size="14.00">id :integer</text>
<text text-anchor="start" x="403" y="-536.4" font-family="Times Roman,serif" font-size="14.00">project_id :integer</text>
<text text-anchor="start" x="403" y="-518.4" font-family="Times Roman,serif" font-size="14.00">owner_id :integer</text>
<text text-anchor="start" x="403" y="-500.4" font-family="Times Roman,serif" font-size="14.00">title :string</text>
<text text-anchor="start" x="403" y="-482.4" font-family="Times Roman,serif" font-size="14.00">description :text</text>
<text text-anchor="start" x="403" y="-464.4" font-family="Times Roman,serif" font-size="14.00">created_at :datetime</text>
<text text-anchor="start" x="403" y="-446.4" font-family="Times Roman,serif" font-size="14.00">updated_at :datetime</text>
<text text-anchor="start" x="403" y="-428.4" font-family="Times Roman,serif" font-size="14.00">status :string</text>
<text text-anchor="start" x="403" y="-410.4" font-family="Times Roman,serif" font-size="14.00">short_title :string</text>
<text text-anchor="start" x="403" y="-392.4" font-family="Times Roman,serif" font-size="14.00">create_date :datetime</text>
<text text-anchor="start" x="403" y="-374.4" font-family="Times Roman,serif" font-size="14.00">root_cause :text</text>
<text text-anchor="start" x="403" y="-356.4" font-family="Times Roman,serif" font-size="14.00">mitigation :text</text>
<text text-anchor="start" x="403" y="-338.4" font-family="Times Roman,serif" font-size="14.00">contingency :text</text>
<text text-anchor="start" x="403" y="-320.4" font-family="Times Roman,serif" font-size="14.00">probability :integer</text>
<text text-anchor="start" x="403" y="-302.4" font-family="Times Roman,serif" font-size="14.00">cost :integer</text>
<text text-anchor="start" x="403" y="-284.4" font-family="Times Roman,serif" font-size="14.00">schedule :integer</text>
<text text-anchor="start" x="403" y="-266.4" font-family="Times Roman,serif" font-size="14.00">technical :integer</text>
<text text-anchor="start" x="403" y="-248.4" font-family="Times Roman,serif" font-size="14.00">other_type :integer</text>
<text text-anchor="start" x="403" y="-230.4" font-family="Times Roman,serif" font-size="14.00">risk_rating :integer</text>
<text text-anchor="start" x="403" y="-212.4" font-family="Times Roman,serif" font-size="14.00">early_impact :date</text>
<text text-anchor="start" x="403" y="-194.4" font-family="Times Roman,serif" font-size="14.00">last_impact :date</text>
<text text-anchor="start" x="403" y="-176.4" font-family="Times Roman,serif" font-size="14.00">days_to_impact :integer</text>
<text text-anchor="start" x="403" y="-158.4" font-family="Times Roman,serif" font-size="14.00">type :string</text>
<text text-anchor="start" x="403" y="-140.4" font-family="Times Roman,serif" font-size="14.00">critical_path :string</text>
<text text-anchor="start" x="403" y="-122.4" font-family="Times Roman,serif" font-size="14.00">wbs_spec :string</text>
<text text-anchor="start" x="403" y="-104.4" font-family="Times Roman,serif" font-size="14.00">comment :text</text>
<text text-anchor="start" x="403" y="-86.4" font-family="Times Roman,serif" font-size="14.00">creator_id :integer</text>
</g>
<!-- Project&#45;&gt;Risk -->
<g id="edge8" class="edge"><title>Project&#45;&gt;Risk</title>
<path fill="none" stroke="#3caea0" d="M464.38,-915.087C469.799,-899.435 474.485,-883.594 478,-868 496.826,-784.489 503.048,-691.704 503.332,-607.358"/>
<ellipse fill="none" stroke="#3caea0" cx="462.999" cy="-918.984" rx="4.00001" ry="4.00001"/>
<polygon fill="#3caea0" stroke="#3caea0" points="503.332,-607.115 507.838,-597.117 503.335,-602.115 503.338,-597.115 503.338,-597.115 503.338,-597.115 503.335,-602.115 498.838,-597.112 503.332,-607.115 503.332,-607.115"/>
</g>
<!-- User -->
<g id="node5" class="node"><title>User</title>
<polyline fill="none" stroke="black" points="302.5,-653 457.5,-653 "/>
<path fill="none" stroke="black" d="M457.5,-653C463.5,-653 469.5,-659 469.5,-665"/>
<polyline fill="none" stroke="black" points="469.5,-665 469.5,-855 "/>
<path fill="none" stroke="black" d="M469.5,-855C469.5,-861 463.5,-867 457.5,-867"/>
<polyline fill="none" stroke="black" points="457.5,-867 302.5,-867 "/>
<path fill="none" stroke="black" d="M302.5,-867C296.5,-867 290.5,-861 290.5,-855"/>
<polyline fill="none" stroke="black" points="290.5,-855 290.5,-665 "/>
<path fill="none" stroke="black" d="M290.5,-665C290.5,-659 296.5,-653 302.5,-653"/>
<text text-anchor="middle" x="380" y="-850.4" font-family="Times Roman,serif" font-size="14.00">User</text>
<polyline fill="none" stroke="black" points="290.5,-841 469.5,-841 "/>
<text text-anchor="start" x="298.5" y="-824.4" font-family="Times Roman,serif" font-size="14.00">id :integer</text>
<text text-anchor="start" x="298.5" y="-806.4" font-family="Times Roman,serif" font-size="14.00">first :string</text>
<text text-anchor="start" x="298.5" y="-788.4" font-family="Times Roman,serif" font-size="14.00">last :string</text>
<text text-anchor="start" x="298.5" y="-770.4" font-family="Times Roman,serif" font-size="14.00">email :string</text>
<text text-anchor="start" x="298.5" y="-752.4" font-family="Times Roman,serif" font-size="14.00">admin :boolean</text>
<text text-anchor="start" x="298.5" y="-734.4" font-family="Times Roman,serif" font-size="14.00">username :string</text>
<text text-anchor="start" x="298.5" y="-716.4" font-family="Times Roman,serif" font-size="14.00">created_at :datetime</text>
<text text-anchor="start" x="298.5" y="-698.4" font-family="Times Roman,serif" font-size="14.00">updated_at :datetime</text>
<text text-anchor="start" x="298.5" y="-680.4" font-family="Times Roman,serif" font-size="14.00">password_digest :string</text>
<text text-anchor="start" x="298.5" y="-662.4" font-family="Times Roman,serif" font-size="14.00">status :string</text>
</g>
<!-- Project&#45;&gt;User -->
<g id="edge4" class="edge"><title>Project&#45;&gt;User</title>
<path fill="none" stroke="#27d7df" d="M407.484,-912.61C407.359,-903.615 406.889,-894.703 406,-886 405.702,-883.084 405.367,-880.135 404.998,-877.165"/>
<polygon fill="#27d7df" stroke="#27d7df" points="407.484,-912.795 402.983,-922.795 407.484,-917.795 407.483,-922.795 407.483,-922.795 407.483,-922.795 407.484,-917.795 411.983,-922.795 407.484,-912.795 407.484,-912.795"/>
<polygon fill="#27d7df" stroke="#27d7df" points="404.964,-876.912 408.083,-866.399 404.294,-871.957 403.623,-867.002 403.623,-867.002 403.623,-867.002 404.294,-871.957 399.164,-867.606 404.964,-876.912 404.964,-876.912"/>
</g>
<!-- Project&#45;&gt;User -->
<g id="edge6" class="edge"><title>Project&#45;&gt;User</title>
<path fill="none" stroke="#548fa9" d="M335.705,-912.766C335.854,-903.73 336.577,-894.767 338,-886 338.467,-883.119 338.991,-880.216 339.565,-877.298"/>
<polygon fill="#548fa9" stroke="#548fa9" points="335.706,-912.992 331.274,-923.023 335.74,-917.992 335.774,-922.992 335.774,-922.992 335.774,-922.992 335.74,-917.992 340.274,-922.962 335.706,-912.992 335.706,-912.992"/>
<polygon fill="#548fa9" stroke="#548fa9" points="339.604,-877.117 346.097,-868.281 340.65,-872.228 341.697,-867.339 341.697,-867.339 341.697,-867.339 340.65,-872.228 337.297,-866.397 339.604,-877.117 339.604,-877.117"/>
<text text-anchor="middle" x="370" y="-891.4" font-family="Times Roman,serif" font-size="14.00">members</text>
</g>
<!-- Version -->
<g id="node11" class="node"><title>Version</title>
<ellipse fill="none" stroke="black" cx="486" cy="-19" rx="48.0833" ry="18.3848"/>
<text text-anchor="middle" x="486" y="-15.4" font-family="Times Roman,serif" font-size="14.00">Version</text>
</g>
<!-- Risk&#45;&gt;Version -->
<g id="edge10" class="edge"><title>Risk&#45;&gt;Version</title>
<path fill="none" stroke="#30db98" d="M486,-68.6497C486,-60.9736 486,-53.957 486,-47.7696"/>
<ellipse fill="none" stroke="#30db98" cx="486" cy="-72.9563" rx="4" ry="4"/>
<polygon fill="#30db98" stroke="#30db98" points="486,-47.5645 490.5,-37.5644 486,-42.5645 486,-37.5645 486,-37.5645 486,-37.5645 486,-42.5645 481.5,-37.5645 486,-47.5645 486,-47.5645"/>
</g>
<!-- User&#45;&gt;ProjectMembership -->
<g id="edge12" class="edge"><title>User&#45;&gt;ProjectMembership</title>
<path fill="none" stroke="#473f6f" d="M353.94,-645.174C338.39,-576.656 318.926,-490.892 304.482,-427.248"/>
<ellipse fill="none" stroke="#473f6f" cx="354.828" cy="-649.085" rx="4.00001" ry="4.00001"/>
<polygon fill="#473f6f" stroke="#473f6f" points="304.421,-426.981 306.596,-416.233 303.315,-422.105 302.208,-417.229 302.208,-417.229 302.208,-417.229 303.315,-422.105 297.82,-418.225 304.421,-426.981 304.421,-426.981"/>
</g>
<!-- User&#45;&gt;Risk -->
<g id="edge14" class="edge"><title>User&#45;&gt;Risk</title>
<path fill="none" stroke="#3f24fd" d="M391.648,-644.529C393.226,-634.84 395.003,-625.226 397,-616 397.63,-613.088 398.278,-610.164 398.943,-607.229"/>
<ellipse fill="none" stroke="#3f24fd" cx="390.989" cy="-648.727" rx="4.00001" ry="4.00001"/>
<polygon fill="#3f24fd" stroke="#3f24fd" points="399.007,-606.952 405.649,-598.226 400.136,-602.081 401.265,-597.21 401.265,-597.21 401.265,-597.21 400.136,-602.081 396.881,-596.194 399.007,-606.952 399.007,-606.952"/>
<text text-anchor="middle" x="440" y="-621.4" font-family="Times Roman,serif" font-size="14.00">owned_risks</text>
</g>
</g>
</svg>
